<?xml version="1.0" standalone="no"?>
<!DOCTYPE svg PUBLIC "-//W3C//DTD SVG 20010904//EN"
 "http://www.w3.org/TR/2001/REC-SVG-20010904/DTD/svg10.dtd">
<svg version="1.0" xmlns="http://www.w3.org/2000/svg"
 width="512.000000pt" height="512.000000pt" viewBox="0 0 512.000000 512.000000"
 preserveAspectRatio="xMidYMid meet">

<g transform="translate(0.000000,512.000000) scale(0.100000,-0.100000)"
fill="#000000" stroke="none">
<path d="M4336 3832 c-10 -5 -412 -386 -893 -848 -482 -461 -879 -839 -883
-839 -5 0 -322 302 -705 670 -384 369 -713 682 -733 698 -29 22 -46 27 -92 27
-53 0 -56 -1 -74 -35 -21 -38 -47 -58 -87 -68 -20 -5 -28 -16 -38 -56 -7 -27
-21 -57 -32 -67 -10 -9 -19 -30 -19 -45 0 -22 -7 -32 -33 -45 -17 -9 -35 -22
-39 -28 -11 -15 -10 -87 1 -122 5 -16 12 -41 15 -56 5 -20 257 -268 891 -877
935 -899 908 -875 980 -857 26 7 2143 2031 2183 2087 27 39 28 74 4 114 -11
17 -94 101 -185 188 -146 139 -171 159 -204 163 -21 2 -46 0 -57 -4z"/>
</g>
</svg>
