<?xml version="1.0" standalone="no"?>
<!DOCTYPE svg PUBLIC "-//W3C//DTD SVG 20010904//EN"
 "http://www.w3.org/TR/2001/REC-SVG-20010904/DTD/svg10.dtd">
<svg version="1.0" xmlns="http://www.w3.org/2000/svg"
 width="512.000000pt" height="512.000000pt" viewBox="0 0 512.000000 512.000000"
 preserveAspectRatio="xMidYMid meet">

<g transform="translate(0.000000,512.000000) scale(0.100000,-0.100000)"
fill="#000000" stroke="none">
<path d="M0 2560 l0 -2560 2560 0 2560 0 0 2560 0 2560 -2560 0 -2560 0 0
-2560z m4596 1124 c204 -194 204 -194 204 -256 0 -48 -3 -53 -62 -113 -35 -35
-526 -507 -1091 -1049 l-1028 -986 -52 0 c-33 0 -62 6 -77 17 -14 10 -416 394
-895 853 l-870 836 -13 55 c-6 30 -12 80 -12 111 0 55 1 57 38 75 29 14 38 25
40 48 2 17 12 39 22 50 17 19 22 30 34 88 5 20 12 27 30 27 24 0 67 36 99 83
16 24 25 27 71 27 45 0 59 -5 93 -32 22 -18 352 -332 733 -698 380 -366 695
-665 700 -665 5 0 376 353 826 785 449 432 846 811 881 843 60 53 67 57 114
57 l50 0 165 -156z"/>
</g>
</svg>
